HIERARCHY
ROOT Hips
{
	OFFSET	0.00	0.00	0.00
	CHANNELS 6 Xposition Yposition Zposition Zrotation Xrotation Yrotation
	JOINT Spine
	{
		OFFSET	 0.00	0.01	 0.00
		CHANNELS 3 Zrotation Xrotation Yrotation
		JOINT Spine1
		{
			OFFSET	 0.00	 2.45913012437421	 0.00
			CHANNELS 3 Zrotation Xrotation Yrotation
            JOINT Neck
            {
                OFFSET	 0.00	 2.48462964506057	 0.00
                CHANNELS 3 Zrotation Xrotation Yrotation
                JOINT Head
                {
                    OFFSET	 0.00	 0.927524780924562	 0.00
                    CHANNELS 3 Zrotation Xrotation Yrotation
                    End Site 
                    {
                        OFFSET	 0.00	 1.14999962169752	 0.00
                    }
                }
            }
			JOINT LeftShoulder
			{
				OFFSET	 0.00	 2.48462964506057	 0.00
				CHANNELS 3 Zrotation Xrotation Yrotation
				JOINT LeftUpArm
				{
					OFFSET	 0.00	 1.24881979654096	 0.00
					CHANNELS 3 Zrotation Xrotation Yrotation
					JOINT LeftForeArm
					{
						OFFSET	 0.00	2.59758046908119	 0.00
						CHANNELS 3 Zrotation Xrotation Yrotation
						JOINT LeftHand
						{
							OFFSET	 0.00	2.45542024364365	 0.00
							CHANNELS 3 Zrotation Xrotation Yrotation
							JOINT LeftHandThumb 
							{
								OFFSET	 0.00	0.00	 0.00
								CHANNELS 3 Zrotation Xrotation Yrotation
								End Site
								{
									OFFSET	 0.00	0.00	1.00000003353624
								}
							}
							JOINT L_Wrist_End 
							{
								OFFSET	 0.00	0.99999967115358	 0.00
								CHANNELS 3 Zrotation Xrotation Yrotation
								End Site 
								{
									OFFSET	 0.00	 0.00	 0.00
								}
							}
						}
					}
				}
			}
			JOINT RightShoulder
			{
				OFFSET	 0.00	 2.48462964506057	 0.00
				CHANNELS 3 Zrotation Xrotation Yrotation
				JOINT RightUpArm
				{
					OFFSET	 0.00	 1.24881979654096	 0.00
					CHANNELS 3 Zrotation Xrotation Yrotation
					JOINT RightForeArm
					{
						OFFSET	 0.00	2.59758046908119	 0.00
						CHANNELS 3 Zrotation Xrotation Yrotation
						JOINT RightHand
						{
							OFFSET	 0.00	2.45542024364365	 0.00
							CHANNELS 3 Zrotation Xrotation Yrotation
							JOINT RightHandThumb 
							{
								OFFSET	 0.00	0.00	 0.00
								CHANNELS 3 Zrotation Xrotation Yrotation
								End Site
								{
									OFFSET	 0.00	0.00	1.00000003353624
								}
							}
							JOINT R_Wrist_End 
							{
								OFFSET	 0.00	0.99999967115358	 0.00
								CHANNELS 3 Zrotation Xrotation Yrotation
								End Site 
								{
									OFFSET	 0.00	 0.00	 0.00
								}
							}
						}
					}
				}
			}
		}
	}
	JOINT LeftUpLeg
	{
		OFFSET	 1.2719394002717	 0.00	 0.00
		CHANNELS 3 Zrotation Xrotation Yrotation
		JOINT LeftLowLeg
		{
			OFFSET	 0.00	-4.3429100912261	 0.00
			CHANNELS 3 Zrotation Xrotation Yrotation
			JOINT LeftFoot
			{
				OFFSET	 0.00	-4.48767017425826	 0.00
				CHANNELS 3 Zrotation Xrotation Yrotation
				JOINT LeftToeBase
                {
                    OFFSET	 0.00	0.00	 1.51507020887566
                    CHANNELS 3 Zrotation Xrotation Yrotation
                    End Site 
                    {
                        OFFSET	 0.00	0.00	 0.75000010571191
                    }
                }
			}
		}
	}
	JOINT RightUpLeg
	{
		OFFSET	 -1.2719393604653	 0.00	 0.00
		CHANNELS 3 Zrotation Xrotation Yrotation
		JOINT RightLowLeg
		{
			OFFSET	 0.00	-4.3429100912261	 0.00
			CHANNELS 3 Zrotation Xrotation Yrotation
			JOINT RightFoot
			{
				OFFSET	 0.00	-4.48767017425826	 0.00
				CHANNELS 3 Zrotation Xrotation Yrotation
				JOINT RightToeBase
                {
                    OFFSET	 0.00	0.00	 1.51507020887566
                    CHANNELS 3 Zrotation Xrotation Yrotation
                    End Site 
                    {
                        OFFSET	 0.00	0.00	 0.749999965609858
                    }
                }   
			}
		}
	}
}
MOTION 
Frames:	11 
Frame Time: 0.02 
  4.018710021972656 18.46469970703125 10.63219970703125 61.0999 80.1683 190.279 8.20305 2.03998 -15.0817 43.4223 30.3689 0.590476 -52.6431 32.6252 53.7809 -36.8437 -63.7521 -40.2983 -142.69571 -1.29926 37.71 -18.9756 10.8866 3.53071 0.0 42.6816 0.0 5.1007 -5.57203 -9.80612 0.0 0.0 0.0 0.0 0.0 0.0 98.29944 2.29119 1.22299 20.8626 9.7695 19.7226 0.0 25.7254 0.0 -8.92486 1.21286 34.6868 0.0 0.0 0.0 0.0 0.0 0.0 2.15452 -11.0755 -3.00685 0.0 23.905 0.0 1.61491 12.83562 -17.1217 0.0 -24.98896 0.0 -1.59454 -18.6904 13.4654 0.0 27.3365 0.0 22.6375 2.8069 -22.4517 0.0 -11.68976 0.0 
  4.024710083007813 18.530799560546875 10.651500244140625 58.1125 80.3537 195.252 8.81328 2.29145 -15.2009 42.7116 29.6495 1.39793 -55.1928 32.2445 56.1482 -37.1166 -63.9207 -38.834 -143.6325 -2.09121 39.3817 -16.9863 11.613 2.05473 0.0 43.7805 0.0 4.42528 -5.49998 -10.4809 0.0 0.0 0.0 0.0 0.0 0.0 98.25326 1.99276 1.69874 20.8308 8.91379 19.1151 0.0 26.1546 0.0 -9.17291 1.24888 34.1972 0.0 0.0 0.0 0.0 0.0 0.0 2.16201 -11.5451 -2.11179 0.0 24.2631 0.0 0.28792 14.79308 -19.03 0.0 -25.5237 0.0 -2.43746 -17.9431 10.7296 0.0 27.2684 0.0 22.1314 2.6309004 -22.1831 0.0 -11.70736 0.0 
  4.0327099609375 18.589300537109374 10.6731005859375 55.2439 80.6198 200.362 9.2957 2.5589 -15.3985 42.3412 28.9378 2.2309 -56.6676 32.0589 57.3686 -36.8645 -63.6051 -37.1439 -143.1317 -1.58716 38.0603 -18.529 11.3612 2.71156 0.0 44.7531 0.0 4.16006 -5.18542 -9.46601 0.0 0.0 0.0 0.0 0.0 0.0 97.95387 1.60811 1.36971 20.7172 8.12911 19.3068 0.0 26.4855 0.0 -9.36605 1.6599 34.5448 0.0 0.0 0.0 0.0 0.0 0.0 2.02442 -12.121 -1.62122 0.0 24.8879 0.0 -2.75357 16.91223 -19.8366 0.0 -24.643429 0.0 -3.29443 -16.9162 7.78222 0.0 26.9385 0.0 21.7386 2.5222998 -21.931 0.0 -11.66772 0.0 
  4.03697998046875 18.6543994140625 10.6952001953125 52.1366 80.8301 205.681 9.59517 2.37812 -15.2874 42.1768 28.8064 2.68449 -57.3659 31.8187 57.8247 -37.1799 -63.0666 -36.6302 -143.23419 -1.53968 37.7586 -18.5549 11.5762 2.52667 0.0 46.3419 0.0 4.70178 -5.33149 -8.96134 0.0 0.0 0.0 0.0 0.0 0.0 97.7153 1.19899 1.40231 20.6308 7.00742 19.6286 0.0 27.1817 0.0 -9.56424 1.83427 35.0834 0.0 0.0 0.0 0.0 0.0 0.0 1.83063 -12.521 -1.17871 0.0 25.2729 0.0 -7.21222 19.36067 -19.8658 0.0 -24.17007 0.0 -3.99216 -15.8242 5.20181 0.0 26.5551 0.0 21.4311 2.3765001 -21.9476 0.0 -11.685431 0.0 
  4.0442898559570315 18.714300537109374 10.707099609375 49.7138 80.8731 210.452 8.90479 0.678988 -13.6365 41.9453 31.0788 1.40124 -50.1852 29.3389 54.036 -38.724 -60.4376 -35.2728 -132.0367 -1.72733 -6.95411 -36.9346 -3.25966 39.4444 0.0 43.5948 0.0 6.81163 -3.50001 -4.13398 0.0 0.0 0.0 0.0 0.0 0.0 97.97705 0.168738 3.70761 20.6106 6.68018 18.773 0.0 26.5946 0.0 -8.73731 2.64867 37.7294 0.0 0.0 0.0 0.0 0.0 0.0 1.63819 -13.281 -0.494853 0.0 26.063 0.0 -10.5165 20.87192 -19.6722 0.0 -23.76829 0.0 -4.58994 -15.0449 2.7224 0.0 26.5215 0.0 21.2634 2.0173998 -22.0115 0.0 -11.84296 0.0 
  4.049859924316406 18.771600341796876 10.731700439453125 47.7084 80.8058 214.923 9.28814 0.566612 -13.9307 41.6893 30.208 2.43759 -51.5001 30.4116 54.2319 -39.0617 -61.1629 -35.512 -132.5592 -1.82623 -7.40145 -36.5369 -3.77795 40.3442 0.0 45.2939 0.0 8.07482 -3.5993 -5.83616 0.0 0.0 0.0 0.0 0.0 0.0 97.6675 -0.0536376 3.89953 20.8161 4.73718 19.0566 0.0 27.4034 0.0 -9.02118 2.57595 37.9642 0.0 0.0 0.0 0.0 0.0 0.0 1.33072 -14.0456 -0.151998 0.0 26.5704 0.0 -12.4965 22.31317 -18.8812 0.0 -23.33891 0.0 -5.11552 -14.2584 0.541166 0.0 26.3052 0.0 21.1874 1.9448996 -22.4343 0.0 -11.91581 0.0 
  4.0514898681640625 18.826400146484374 10.756800537109376 45.1751 80.9726 219.95 9.65088 0.735416 -14.2992 41.5164 29.2434 3.45368 -52.6296 31.8127 53.9131 -39.8602 -61.8825 -35.8391 -132.9857 -1.94979 -7.1491 -36.412 -4.23085 40.1658 0.0 46.9352 0.0 8.73544 -2.38832 -5.57347 0.0 0.0 0.0 0.0 0.0 0.0 97.58236 -0.207595 3.48784 20.6738 2.85736 19.677 0.0 28.1494 0.0 -9.42648 2.68302 38.7098 0.0 0.0 0.0 0.0 0.0 0.0 0.945403 -14.4592 0.231384 0.0 26.9369 0.0 -11.7302 22.70502 -17.4877 0.0 -26.3522 0.0 -5.40529 -13.1317 -0.969118 0.0 26.011 0.0 21.4422 1.7025003 -23.2403 0.0 -11.89735 0.0 
  4.0560299682617185 18.8706005859375 10.7781005859375 43.8479 80.8785 223.837 9.93966 0.406105 -14.3569 41.245 28.7765 4.15591 -52.2086 32.255 53.0599 -40.5704 -61.9552 -36.3224 -133.0779 -2.18289 -6.70134 -36.5574 -4.23574 39.6343 0.0 48.8418 0.0 9.1672 -2.14204 -6.24988 0.0 0.0 0.0 0.0 0.0 0.0 97.48665 -0.767282 3.72534 20.7295 1.39135 20.0643 0.0 28.7386 0.0 -9.73677 2.70406 38.9515 0.0 0.0 0.0 0.0 0.0 0.0 0.364462 -15.1607 0.128544 0.0 27.1331 0.0 -10.7374 22.12505 -15.0548 0.0 -24.0068 0.0 -5.69431 -12.3219 -2.3414 0.0 25.7291 0.0 21.6678 1.4329004 -24.1636 0.0 -11.97315 0.0 
  4.0586700439453125 18.909300537109374 10.796300048828124 42.0292 80.8707 228.198 10.4902 0.365297 -14.6114 40.5249 27.7306 5.19324 -52.3188 33.9232 51.9189 -41.4479 -62.9986 -36.6844 -133.0428 -2.52734 -7.1773 -36.6083 -4.99605 40.2068 0.0 50.1326 0.0 9.14767 -1.93713 -7.28309 0.0 0.0 0.0 0.0 0.0 0.0 97.80148 -0.997079 3.44028 20.5233 -0.394618 20.7644 0.0 29.3384 0.0 -10.0506 2.58064 37.3391 0.0 0.0 0.0 0.0 0.0 0.0 -0.305353 -15.5083 -0.271415 0.0 26.7984 0.0 -10.5546 22.0087 -12.1044 0.0 -23.957691 0.0 -5.90608 -11.2884 -3.31295 0.0 25.3221 0.0 21.9831 0.9890003 -25.1827 0.0 -11.88899 0.0 
  4.060979919433594 18.951800537109374 10.8102001953125 39.9012 80.8691 232.662 10.6072 0.335192 -14.6999 40.3537 27.1558 5.94524 -52.0438 34.7926 50.8699 -42.3463 -63.3508 -37.551 -133.08951 -2.87783 -6.90066 -36.672 -5.2971 40.1221 0.0 51.6638 0.0 9.0682 -2.02219 -7.66904 0.0 0.0 0.0 0.0 0.0 0.0 97.73527 -1.54674 3.38702 20.5001 -1.94666 20.7464 0.0 30.1541 0.0 -10.5466 2.32976 39.1374 0.0 0.0 0.0 0.0 0.0 0.0 -0.86387 -15.5937 -0.319636 0.0 25.9682 0.0 -10.8111 22.592 -9.44378 0.0 -23.4596 0.0 -5.89882 -10.2164 -3.55523 0.0 24.8482 0.0 22.4371 0.22340012 -26.6401 0.0 -11.85391 0.0 
  4.064469909667968 18.986800537109374 10.82239990234375 37.9787 80.6939 236.723 10.6978 0.17917 -14.6141 40.007 26.7524 6.64107 -51.1081 35.4695 49.4044 -43.2957 -63.6178 -38.448 -133.0853 -2.92143 -6.8786 -36.7125 -5.85983 39.9707 0.0 52.6741 0.0 8.64744 -1.53279 -6.83335 0.0 0.0 0.0 0.0 0.0 0.0 97.87494 -2.04441 3.22948 20.3002 -3.24102 21.4825 0.0 30.6974 0.0 -10.6696 2.13192 37.9719 0.0 0.0 0.0 0.0 0.0 0.0 -1.52845 -15.6035 -0.112345 0.0 24.688 0.0 -10.8824 23.845959 -7.11629 0.0 -23.258621 0.0 -5.94834 -9.35012 -3.55288 0.0 24.4476 0.0 22.7044 -0.6100998 -28.2338 0.0 -11.68184 0.0 
